<svg xmlns="http://www.w3.org/2000/svg" viewBox="148.66 32.74 171.01 51.95" role="img" aria-label="sluice">
  <!-- 'sluice' outlined from Inter SemiBold (SIL OFL). fill is currentColor; set color or override fill. -->
  <path d="M164.983 82.696Q161.078 82.696 158.081 81.576Q155.084 80.456 153.162 78.307Q151.239 76.157 150.664 73.100L158.021 71.707Q158.717 74.220 160.488 75.446Q162.259 76.672 165.135 76.672Q168.041 76.672 169.751 75.506Q171.462 74.341 171.462 72.615Q171.462 71.162 170.342 70.208Q169.222 69.255 166.891 68.740L161.108 67.499Q156.325 66.470 153.964 64.108Q151.603 61.747 151.603 58.023Q151.603 54.875 153.328 52.574Q155.054 50.273 158.126 49.002Q161.199 47.730 165.256 47.730Q169.101 47.730 171.871 48.820Q174.641 49.910 176.351 51.863Q178.062 53.815 178.728 56.449L171.704 57.842Q171.129 56.056 169.615 54.830Q168.102 53.604 165.347 53.604Q162.834 53.604 161.154 54.708Q159.474 55.813 159.474 57.539Q159.474 59.022 160.594 59.991Q161.714 60.960 164.287 61.505L170.039 62.716Q174.853 63.745 177.184 66.016Q179.515 68.286 179.515 71.858Q179.515 75.067 177.668 77.504Q175.821 79.941 172.537 81.319Q169.252 82.696 164.983 82.696 M185.235 36.893L193.106 36.893L193.106 82L185.235 82 M212.057 82.424Q208.575 82.424 205.957 80.940Q203.338 79.457 201.900 76.596Q200.462 73.735 200.462 69.679L200.462 48.154L208.333 48.154L208.333 68.468Q208.333 71.858 210.104 73.796Q211.875 75.733 214.963 75.733Q217.052 75.733 218.687 74.825Q220.321 73.917 221.245 72.161Q222.168 70.405 222.168 67.983L222.168 48.154L230.069 48.154L230.069 82L222.592 82L222.501 73.645L223.106 73.645Q221.684 78.064 218.898 80.244Q216.113 82.424 212.057 82.424 M245.296 82L237.425 82L237.425 48.154L245.296 48.154L245.296 82M241.360 43.371Q239.483 43.371 238.136 42.100Q236.789 40.828 236.789 39.072Q236.789 37.256 238.136 36Q239.483 34.743 241.360 34.743Q243.268 34.743 244.615 36Q245.962 37.256 245.962 39.042Q245.962 40.828 244.615 42.100Q243.268 43.371 241.360 43.371 M267.334 82.696Q262.399 82.696 258.767 80.501Q255.134 78.307 253.151 74.386Q251.168 70.466 251.168 65.259Q251.168 59.991 253.151 56.041Q255.134 52.090 258.767 49.910Q262.399 47.730 267.334 47.730Q270.149 47.730 272.571 48.457Q274.993 49.184 276.900 50.561Q278.808 51.938 280.094 53.906Q281.381 55.874 281.926 58.356L274.569 59.900Q274.236 58.599 273.616 57.524Q272.995 56.449 272.087 55.692Q271.179 54.936 269.998 54.527Q268.817 54.118 267.395 54.118Q264.640 54.118 262.823 55.586Q261.007 57.055 260.099 59.552Q259.190 62.050 259.190 65.229Q259.190 68.347 260.099 70.859Q261.007 73.372 262.823 74.840Q264.640 76.309 267.395 76.309Q268.848 76.309 270.043 75.885Q271.239 75.461 272.163 74.674Q273.086 73.887 273.722 72.767Q274.357 71.646 274.660 70.284L282.017 71.828Q281.472 74.371 280.185 76.369Q278.898 78.367 276.976 79.775Q275.054 81.183 272.617 81.939Q270.180 82.696 267.334 82.696 M302.723 82.696Q297.606 82.696 293.928 80.547Q290.250 78.397 288.267 74.492Q286.284 70.587 286.284 65.289Q286.284 60.052 288.237 56.116Q290.189 52.181 293.777 49.956Q297.364 47.730 302.208 47.730Q305.296 47.730 308.096 48.729Q310.896 49.729 313.061 51.817Q315.226 53.906 316.452 57.130Q317.678 60.354 317.678 64.805L317.678 67.287L290.008 67.287L290.008 61.929L313.772 61.929L310.079 63.503Q310.079 60.657 309.201 58.493Q308.323 56.328 306.583 55.117Q304.842 53.906 302.238 53.906Q299.635 53.906 297.818 55.132Q296.002 56.358 295.048 58.402Q294.095 60.445 294.095 62.958L294.095 66.651Q294.095 69.860 295.185 72.070Q296.274 74.280 298.242 75.400Q300.210 76.521 302.813 76.521Q304.539 76.521 305.947 76.021Q307.354 75.521 308.384 74.538Q309.413 73.554 309.928 72.131L317.163 73.614Q316.346 76.339 314.378 78.382Q312.410 80.426 309.458 81.561Q306.507 82.696 302.723 82.696" fill="currentColor"/>
</svg>
